<svg xmlns="http://www.w3.org/2000/svg" xmlns:xlink="http://www.w3.org/1999/xlink" width="500" zoomAndPan="magnify" viewBox="0 0 375 374.999991" height="500" preserveAspectRatio="xMidYMid meet" version="1.0"><defs><clipPath id="2dff05d263"><path d="M 112.5 201.988281 L 173.25 201.988281 L 173.25 262.738281 L 112.5 262.738281 Z M 112.5 201.988281 " clip-rule="nonzero"/></clipPath></defs><g clip-path="url(#2dff05d263)"><path fill="#000000" d="M 142.875 201.988281 C 126.136719 201.988281 112.5 215.628906 112.5 232.363281 C 112.5 249.101562 126.136719 262.738281 142.875 262.738281 C 159.613281 262.738281 173.25 249.101562 173.25 232.363281 C 173.25 215.628906 159.613281 201.988281 142.875 201.988281 Z M 158.0625 235.402344 L 145.914062 235.402344 L 145.914062 247.550781 C 145.914062 249.222656 144.546875 250.589844 142.875 250.589844 C 141.203125 250.589844 139.835938 249.222656 139.835938 247.550781 L 139.835938 235.402344 L 127.6875 235.402344 C 126.015625 235.402344 124.648438 234.035156 124.648438 232.363281 C 124.648438 230.691406 126.015625 229.324219 127.6875 229.324219 L 139.835938 229.324219 L 139.835938 217.175781 C 139.835938 215.503906 141.203125 214.136719 142.875 214.136719 C 144.546875 214.136719 145.914062 215.503906 145.914062 217.175781 L 145.914062 229.324219 L 158.0625 229.324219 C 159.734375 229.324219 161.101562 230.691406 161.101562 232.363281 C 161.101562 234.035156 159.734375 235.402344 158.0625 235.402344 Z M 158.0625 235.402344 " fill-opacity="1" fill-rule="nonzero"/></g></svg>