<svg xmlns="http://www.w3.org/2000/svg" xmlns:xlink="http://www.w3.org/1999/xlink" width="500" zoomAndPan="magnify" viewBox="0 0 375 374.999991" height="500" preserveAspectRatio="xMidYMid meet" version="1.0"><defs><clipPath id="673667c304"><path d="M 112.5 126 L 191 126 L 191 192 L 112.5 192 Z M 112.5 126 " clip-rule="nonzero"/></clipPath><clipPath id="5c1d0caed0"><path d="M 112.5 149 L 198.75 149 L 198.75 197 L 112.5 197 Z M 112.5 149 " clip-rule="nonzero"/></clipPath></defs><g clip-path="url(#673667c304)"><path fill="#000000" d="M 114.101562 191.597656 C 113.332031 191.597656 112.710938 190.972656 112.710938 190.203125 L 112.710938 133.800781 C 112.710938 129.558594 116.148438 126.105469 120.371094 126.105469 L 140.539062 126.105469 C 144.402344 126.105469 147.609375 128.996094 148.125 132.734375 L 182.496094 132.734375 C 187.175781 132.734375 190.980469 136.558594 190.980469 141.261719 L 190.980469 150.976562 C 190.980469 151.75 190.359375 152.375 189.589844 152.375 C 188.820312 152.375 188.199219 151.75 188.199219 150.976562 L 188.199219 141.261719 C 188.199219 138.097656 185.640625 135.527344 182.496094 135.527344 L 146.808594 135.527344 C 146.039062 135.527344 145.417969 134.902344 145.417969 134.132812 L 145.417969 133.800781 C 145.417969 131.097656 143.230469 128.902344 140.539062 128.902344 L 120.371094 128.902344 C 117.679688 128.902344 115.492188 131.097656 115.492188 133.800781 L 115.492188 190.203125 C 115.492188 190.976562 114.871094 191.597656 114.101562 191.597656 Z M 114.101562 191.597656 " fill-opacity="1" fill-rule="nonzero"/></g><g clip-path="url(#5c1d0caed0)"><path fill="#000000" d="M 184.3125 196.769531 L 118.402344 196.769531 C 116.605469 196.769531 115.03125 196.054688 113.964844 194.757812 C 112.90625 193.46875 112.492188 191.714844 112.832031 189.9375 L 119.378906 155.878906 C 120.050781 152.40625 123.445312 149.578125 126.941406 149.578125 L 192.847656 149.578125 C 194.644531 149.578125 196.226562 150.292969 197.289062 151.59375 C 198.351562 152.882812 198.761719 154.636719 198.421875 156.410156 L 191.871094 190.464844 C 191.199219 193.941406 187.808594 196.769531 184.3125 196.769531 Z M 126.9375 152.375 C 124.746094 152.375 122.535156 154.226562 122.109375 156.414062 L 115.5625 190.46875 C 115.378906 191.433594 115.570312 192.328125 116.109375 192.980469 C 116.636719 193.621094 117.453125 193.972656 118.402344 193.972656 L 184.3125 193.972656 C 186.503906 193.972656 188.714844 192.125 189.140625 189.9375 L 195.6875 155.878906 C 195.875 154.917969 195.679688 154.023438 195.144531 153.371094 C 194.613281 152.730469 193.796875 152.375 192.84375 152.375 Z M 126.9375 152.375 " fill-opacity="1" fill-rule="nonzero"/></g><path fill="#000000" d="M 120.789062 157.34375 C 120.019531 157.34375 119.398438 156.71875 119.398438 155.945312 L 119.398438 142.898438 C 119.398438 141.617188 120.433594 140.578125 121.710938 140.578125 L 180.523438 140.578125 C 181.792969 140.578125 182.828125 141.617188 182.828125 142.898438 L 182.828125 150.980469 C 182.828125 151.75 182.207031 152.375 181.4375 152.375 C 180.667969 152.375 180.046875 151.75 180.046875 150.980469 L 180.046875 143.371094 L 122.179688 143.371094 L 122.179688 155.945312 C 122.179688 156.71875 121.558594 157.34375 120.789062 157.34375 Z M 120.789062 157.34375 " fill-opacity="1" fill-rule="nonzero"/></svg>