<svg xmlns="http://www.w3.org/2000/svg" xmlns:xlink="http://www.w3.org/1999/xlink" width="500" zoomAndPan="magnify" viewBox="0 0 375 374.999991" height="500" preserveAspectRatio="xMidYMid meet" version="1.0"><defs><g/><clipPath id="962dbe02c1"><path d="M 64.152344 151.300781 L 147.847656 151.300781 L 147.847656 223.699219 L 64.152344 223.699219 Z M 64.152344 151.300781 " clip-rule="nonzero"/></clipPath><clipPath id="ab20d00ed6"><path d="M 126.847656 151.300781 L 85.050781 151.300781 L 64.152344 187.5 L 85.050781 223.699219 L 126.847656 223.699219 L 147.746094 187.5 L 126.847656 151.300781 " clip-rule="nonzero"/></clipPath><clipPath id="2f4174d8e4"><path d="M 82 163.886719 L 130 163.886719 L 130 211.136719 L 82 211.136719 Z M 82 163.886719 " clip-rule="nonzero"/></clipPath></defs><g clip-path="url(#962dbe02c1)"><g clip-path="url(#ab20d00ed6)"><path fill="#f5ba5e" d="M 64.152344 151.300781 L 147.679688 151.300781 L 147.679688 223.699219 L 64.152344 223.699219 Z M 64.152344 151.300781 " fill-opacity="1" fill-rule="nonzero"/></g></g><path fill="#000000" d="M 86.089844 193.402344 C 86.089844 193.402344 86.128906 193.402344 86.128906 193.402344 C 86.53125 193.367188 86.828125 193.035156 86.828125 192.628906 C 86.644531 190.164062 88.964844 187.917969 92.0625 187.511719 C 92.46875 187.476562 92.761719 187.105469 92.691406 186.703125 C 92.652344 186.296875 92.285156 186.003906 91.878906 186.078125 C 88.007812 186.554688 85.132812 189.464844 85.351562 192.703125 C 85.390625 193.109375 85.722656 193.402344 86.089844 193.402344 Z M 86.089844 193.402344 " fill-opacity="1" fill-rule="nonzero"/><path fill="#000000" d="M 95.675781 186.40625 C 95.675781 186.609375 95.605469 186.785156 95.460938 186.929688 C 95.316406 187.070312 95.140625 187.144531 94.9375 187.144531 C 94.734375 187.144531 94.5625 187.070312 94.417969 186.929688 C 94.273438 186.785156 94.203125 186.609375 94.203125 186.40625 C 94.203125 186.203125 94.273438 186.03125 94.417969 185.886719 C 94.5625 185.742188 94.734375 185.671875 94.9375 185.671875 C 95.140625 185.671875 95.316406 185.742188 95.460938 185.886719 C 95.605469 186.03125 95.675781 186.203125 95.675781 186.40625 Z M 95.675781 186.40625 " fill-opacity="1" fill-rule="nonzero"/><g clip-path="url(#2f4174d8e4)"><path fill="#000000" d="M 90.367188 200.398438 C 92.542969 200.398438 94.71875 199.480469 96.488281 197.894531 C 97.078125 205.332031 101.132812 211.078125 106 211.078125 C 110.867188 211.078125 114.921875 205.332031 115.511719 197.894531 C 117.28125 199.515625 119.457031 200.398438 121.632812 200.398438 C 123.878906 200.398438 126.128906 199.40625 127.824219 197.234375 C 132.25 191.527344 127.824219 184.382812 120.671875 183.425781 L 111.640625 181.804688 C 112.488281 180.589844 113.003906 179.152344 113.003906 177.570312 C 113.003906 174.476562 111.011719 171.863281 108.210938 170.941406 C 108.210938 168.660156 109.5 167.554688 110.238281 167.078125 C 110.570312 167.40625 111.011719 167.628906 111.53125 167.628906 C 112.5625 167.628906 113.371094 166.820312 113.371094 165.789062 C 113.371094 164.757812 112.5625 163.945312 111.53125 163.945312 C 110.535156 163.945312 109.757812 164.71875 109.6875 165.675781 C 108.507812 166.339844 106.847656 167.921875 106.738281 170.609375 C 106.515625 170.574219 106.257812 170.574219 106 170.574219 C 105.742188 170.574219 105.484375 170.574219 105.261719 170.609375 C 105.152344 167.921875 103.492188 166.339844 102.3125 165.675781 C 102.238281 164.71875 101.464844 163.945312 100.46875 163.945312 C 99.4375 163.945312 98.625 164.757812 98.625 165.789062 C 98.625 166.820312 99.4375 167.628906 100.46875 167.628906 C 100.984375 167.628906 101.425781 167.40625 101.757812 167.078125 C 102.496094 167.554688 103.785156 168.660156 103.785156 170.941406 C 101.023438 171.863281 98.996094 174.476562 98.996094 177.570312 C 98.996094 179.152344 99.511719 180.589844 100.394531 181.769531 L 91.363281 183.386719 C 84.171875 184.382812 79.75 191.488281 84.171875 197.234375 C 85.871094 199.40625 88.117188 200.398438 90.367188 200.398438 Z M 111.53125 165.417969 C 111.75 165.417969 111.898438 165.566406 111.898438 165.789062 C 111.898438 166.007812 111.75 166.15625 111.53125 166.15625 C 111.308594 166.15625 111.160156 166.007812 111.160156 165.789062 C 111.160156 165.566406 111.308594 165.417969 111.53125 165.417969 Z M 100.46875 166.15625 C 100.246094 166.15625 100.101562 166.007812 100.101562 165.789062 C 100.101562 165.566406 100.246094 165.417969 100.46875 165.417969 C 100.691406 165.417969 100.835938 165.566406 100.835938 165.789062 C 100.835938 166.007812 100.691406 166.15625 100.46875 166.15625 Z M 113.371094 203.898438 C 106.332031 199 100.726562 202.242188 98.589844 203.898438 C 98.40625 203.417969 98.21875 202.941406 98.074219 202.460938 C 100.652344 200.582031 106.589844 197.636719 113.851562 202.5 C 113.742188 202.941406 113.558594 203.417969 113.371094 203.898438 Z M 114.738281 198.226562 L 114.40625 198.667969 C 105.003906 191.230469 98 198.410156 97.703125 198.707031 L 97.296875 198.335938 C 97.261719 197.96875 97.222656 197.601562 97.222656 197.234375 C 97.261719 197.195312 97.296875 197.160156 97.335938 197.121094 C 99.4375 195.390625 106.21875 190.863281 114.664062 197.011719 C 114.738281 197.085938 114.773438 197.160156 114.847656 197.234375 C 114.8125 197.566406 114.773438 197.894531 114.738281 198.226562 Z M 110.089844 183.242188 C 110.203125 183.167969 110.277344 183.09375 110.386719 183.019531 L 120.414062 184.824219 C 120.453125 184.824219 120.453125 184.824219 120.488281 184.824219 C 123.769531 185.265625 126.609375 187.292969 127.675781 189.941406 C 128.5625 192.078125 128.195312 194.324219 126.683594 196.277344 C 125.355469 197.96875 123.621094 198.890625 121.667969 198.890625 C 118.496094 198.890625 115.4375 196.570312 114.035156 193.144531 C 113.003906 190.605469 111.714844 187.992188 110.71875 185.890625 C 110.3125 185.007812 109.90625 184.234375 109.613281 183.535156 C 109.722656 183.5 109.90625 183.386719 110.089844 183.242188 Z M 110.347656 188.691406 C 110.644531 189.351562 110.976562 190.015625 111.308594 190.714844 C 106.882812 188.542969 103.195312 189.390625 100.765625 190.605469 C 101.097656 189.90625 101.390625 189.242188 101.6875 188.617188 C 103.972656 187.808594 106.957031 187.476562 110.347656 188.691406 Z M 84.359375 189.980469 C 85.464844 187.328125 88.265625 185.304688 91.546875 184.859375 C 91.582031 184.859375 91.582031 184.859375 91.621094 184.859375 L 101.648438 183.058594 C 101.757812 183.128906 101.832031 183.203125 101.945312 183.277344 C 102.128906 183.386719 102.3125 183.535156 102.496094 183.644531 C 102.164062 184.34375 101.796875 185.117188 101.390625 186.003906 C 100.359375 188.101562 99.105469 190.714844 98.074219 193.257812 C 96.597656 196.605469 93.539062 198.925781 90.367188 198.925781 C 88.414062 198.925781 86.644531 198.007812 85.351562 196.3125 C 83.839844 194.359375 83.472656 192.113281 84.359375 189.980469 Z M 84.359375 189.980469 " fill-opacity="1" fill-rule="nonzero"/></g><path fill="#000000" d="M 119.898438 187.511719 C 122.996094 187.917969 125.316406 190.164062 125.132812 192.628906 C 125.097656 193.035156 125.429688 193.402344 125.835938 193.402344 C 125.835938 193.402344 125.871094 193.402344 125.871094 193.402344 C 126.238281 193.402344 126.570312 193.109375 126.609375 192.703125 C 126.828125 189.464844 123.953125 186.519531 120.082031 186.039062 C 119.675781 186.003906 119.308594 186.261719 119.273438 186.664062 C 119.234375 187.070312 119.492188 187.4375 119.898438 187.511719 Z M 119.898438 187.511719 " fill-opacity="1" fill-rule="nonzero"/><path fill="#000000" d="M 117.796875 186.40625 C 117.796875 186.609375 117.726562 186.785156 117.582031 186.929688 C 117.4375 187.070312 117.261719 187.144531 117.058594 187.144531 C 116.855469 187.144531 116.683594 187.070312 116.539062 186.929688 C 116.394531 186.785156 116.320312 186.609375 116.320312 186.40625 C 116.320312 186.203125 116.394531 186.03125 116.539062 185.886719 C 116.683594 185.742188 116.855469 185.671875 117.058594 185.671875 C 117.261719 185.671875 117.4375 185.742188 117.582031 185.886719 C 117.726562 186.03125 117.796875 186.203125 117.796875 186.40625 Z M 117.796875 186.40625 " fill-opacity="1" fill-rule="nonzero"/><g fill="#000000" fill-opacity="1"><g transform="translate(154.638678, 215.987299)"><g><path d="M 2.234375 -0.84375 L 5.59375 -1.6875 L 5.59375 -37.515625 L 2.234375 -38.359375 L 2.234375 -39.203125 L 9.515625 -39.203125 C 12.878906 -39.203125 14.5625 -37.519531 14.5625 -34.15625 L 14.5625 -25.203125 C 15.125 -25.941406 15.703125 -26.535156 16.296875 -26.984375 C 17.898438 -28.222656 19.75 -28.84375 21.84375 -28.84375 C 23.925781 -28.84375 25.796875 -28.398438 27.453125 -27.515625 C 29.117188 -26.640625 30.421875 -25.492188 31.359375 -24.078125 C 32.296875 -22.660156 32.765625 -21.164062 32.765625 -19.59375 L 32.765625 -1.6875 L 36.125 -0.84375 L 36.125 0 L 28.84375 0 C 25.476562 0 23.796875 -1.679688 23.796875 -5.046875 L 23.796875 -19.59375 C 23.796875 -21.945312 23.375 -23.75 22.53125 -25 C 21.695312 -26.25 20.71875 -26.875 19.59375 -26.875 C 18.175781 -26.875 16.910156 -26.128906 15.796875 -24.640625 C 15.304688 -24.003906 14.894531 -23.257812 14.5625 -22.40625 L 14.5625 -1.6875 L 17.921875 -0.84375 L 17.921875 0 L 2.234375 0 Z M 2.234375 -0.84375 "/></g></g></g><g fill="#000000" fill-opacity="1"><g transform="translate(191.873482, 215.987299)"><g><path d="M 2.234375 -0.84375 L 5.59375 -1.6875 L 5.59375 -26.3125 L 2.234375 -27.15625 L 2.234375 -28 L 9.515625 -28 C 12.878906 -28 14.5625 -26.316406 14.5625 -22.953125 L 14.5625 -1.6875 L 17.921875 -0.84375 L 17.921875 0 L 2.234375 0 Z M 9.515625 -31.359375 C 8.398438 -31.359375 7.46875 -31.726562 6.71875 -32.46875 C 5.976562 -33.21875 5.609375 -34.15625 5.609375 -35.28125 C 5.609375 -36.394531 5.976562 -37.328125 6.71875 -38.078125 C 7.46875 -38.828125 8.398438 -39.203125 9.515625 -39.203125 C 10.640625 -39.203125 11.570312 -38.828125 12.3125 -38.078125 C 13.0625 -37.328125 13.4375 -36.394531 13.4375 -35.28125 C 13.4375 -34.15625 13.0625 -33.21875 12.3125 -32.46875 C 11.570312 -31.726562 10.640625 -31.359375 9.515625 -31.359375 Z M 9.515625 -31.359375 "/></g></g></g><g fill="#000000" fill-opacity="1"><g transform="translate(210.910819, 215.987299)"><g><path d="M 1.6875 -26.3125 L -1.125 -27.15625 L -1.125 -28 L 5.875 -28 C 7.820312 -28 9.363281 -27.597656 10.5 -26.796875 C 11.632812 -25.992188 12.613281 -24.804688 13.4375 -23.234375 L 20.109375 -10.296875 L 26.3125 -25.484375 L 22.125 -27.15625 L 22.125 -28 L 32.484375 -28 L 32.484375 -27.15625 L 28 -25.484375 L 17.359375 0.5625 L 15.6875 0.5625 Z M 1.6875 -26.3125 "/></g></g></g><g fill="#000000" fill-opacity="1"><g transform="translate(242.266438, 215.987299)"><g><path d="M 17.359375 0.84375 C 12.578125 0.84375 8.859375 -0.472656 6.203125 -3.109375 C 3.554688 -5.742188 2.234375 -9.375 2.234375 -14 C 2.234375 -17.019531 2.8125 -19.648438 3.96875 -21.890625 C 5.132812 -24.128906 6.75 -25.847656 8.8125 -27.046875 C 10.882812 -28.242188 13.265625 -28.84375 15.953125 -28.84375 C 18.640625 -28.84375 21 -28.335938 23.03125 -27.328125 C 25.070312 -26.316406 26.644531 -24.960938 27.75 -23.265625 C 28.851562 -21.566406 29.40625 -19.691406 29.40625 -17.640625 C 29.40625 -16.703125 29.3125 -15.898438 29.125 -15.234375 L 28.84375 -14.28125 C 27.238281 -13.945312 25.5 -13.664062 23.625 -13.4375 C 19.707031 -12.875 15.753906 -12.59375 11.765625 -12.59375 C 11.765625 -8.269531 12.359375 -5.179688 13.546875 -3.328125 C 14.742188 -1.484375 16.390625 -0.5625 18.484375 -0.5625 C 19.929688 -0.5625 21.28125 -0.90625 22.53125 -1.59375 C 23.789062 -2.28125 24.78125 -3.191406 25.5 -4.328125 C 26.226562 -5.472656 26.59375 -6.644531 26.59375 -7.84375 L 28 -7.84375 C 28 -6.34375 27.550781 -4.921875 26.65625 -3.578125 C 25.757812 -2.234375 24.507812 -1.160156 22.90625 -0.359375 C 21.300781 0.441406 19.453125 0.84375 17.359375 0.84375 Z M 11.765625 -14 C 14.148438 -14 16.085938 -14.09375 17.578125 -14.28125 C 18.210938 -14.320312 18.882812 -14.414062 19.59375 -14.5625 C 19.632812 -14.75 19.726562 -15.160156 19.875 -15.796875 C 20.0625 -16.722656 20.15625 -17.710938 20.15625 -18.765625 C 20.15625 -21.859375 19.742188 -24.125 18.921875 -25.5625 C 18.109375 -27 17.117188 -27.71875 15.953125 -27.71875 C 13.160156 -27.71875 11.765625 -23.144531 11.765625 -14 Z M 11.765625 -14 "/></g></g></g><g fill="#000000" fill-opacity="1"><g transform="translate(189.08967, 167.637308)"><g><path d="M 2.453125 -0.203125 L 3.296875 -0.421875 L 3.296875 -9.453125 L 1.6875 -9.453125 C 1.6875 -8.878906 1.53125 -8.332031 1.21875 -7.8125 C 1.082031 -7.59375 0.929688 -7.414062 0.765625 -7.28125 L 0.34375 -7.28125 L 0.34375 -9.796875 L 8.546875 -9.796875 L 8.546875 -7.28125 L 8.125 -7.28125 C 7.945312 -7.414062 7.789062 -7.59375 7.65625 -7.8125 C 7.351562 -8.3125 7.203125 -8.859375 7.203125 -9.453125 L 5.59375 -9.453125 L 5.59375 -0.421875 L 6.4375 -0.203125 L 6.4375 0 L 2.453125 0 Z M 2.453125 -0.203125 "/></g></g></g><g fill="#000000" fill-opacity="1"><g transform="translate(203.574714, 167.637308)"><g><path d="M 0.703125 0 L 0.703125 -0.203125 L 1.546875 -0.421875 L 1.546875 -9.375 L 0.703125 -9.59375 L 0.703125 -9.796875 L 4.6875 -9.796875 L 4.6875 -9.59375 L 3.84375 -9.375 L 3.84375 -5.046875 L 6.859375 -5.046875 L 6.859375 -9.375 L 6.015625 -9.59375 L 6.015625 -9.796875 L 10.015625 -9.796875 L 10.015625 -9.59375 L 9.171875 -9.375 L 9.171875 -0.421875 L 10.015625 -0.203125 L 10.015625 0 L 6.015625 0 L 6.015625 -0.203125 L 6.859375 -0.421875 L 6.859375 -4.6875 L 3.84375 -4.6875 L 3.84375 -0.421875 L 4.6875 -0.203125 L 4.6875 0 Z M 0.703125 0 "/></g></g></g><g fill="#000000" fill-opacity="1"><g transform="translate(219.878738, 167.637308)"><g><path d="M 0.703125 -0.203125 L 1.546875 -0.421875 L 1.546875 -9.375 L 0.703125 -9.59375 L 0.703125 -9.796875 L 8.1875 -9.796875 L 8.1875 -7.28125 L 7.765625 -7.28125 C 7.585938 -7.414062 7.4375 -7.59375 7.3125 -7.8125 C 7.007812 -8.3125 6.859375 -8.859375 6.859375 -9.453125 L 3.84375 -9.453125 L 3.84375 -5.046875 L 5.453125 -5.046875 C 5.523438 -5.398438 5.648438 -5.726562 5.828125 -6.03125 C 5.898438 -6.175781 5.988281 -6.3125 6.09375 -6.4375 L 6.515625 -6.4375 L 6.515625 -3.296875 L 6.09375 -3.296875 C 5.988281 -3.421875 5.898438 -3.554688 5.828125 -3.703125 C 5.648438 -4.003906 5.523438 -4.332031 5.453125 -4.6875 L 3.84375 -4.6875 L 3.84375 -0.34375 L 7.140625 -0.34375 C 7.140625 -0.9375 7.289062 -1.484375 7.59375 -1.984375 C 7.71875 -2.203125 7.867188 -2.378906 8.046875 -2.515625 L 8.46875 -2.515625 L 8.46875 0 L 0.703125 0 Z M 0.703125 -0.203125 "/></g></g></g></svg>