<svg xmlns="http://www.w3.org/2000/svg" xmlns:xlink="http://www.w3.org/1999/xlink" width="500" zoomAndPan="magnify" viewBox="0 0 375 374.999991" height="500" preserveAspectRatio="xMidYMid meet" version="1.0"><defs><g/></defs><g fill="#4b4c4d" fill-opacity="1"><g transform="translate(125.758796, 215.987299)"><g><path d="M 2.234375 -0.84375 L 5.59375 -1.6875 L 5.59375 -37.515625 L 2.234375 -38.359375 L 2.234375 -39.203125 L 9.515625 -39.203125 C 12.878906 -39.203125 14.5625 -37.519531 14.5625 -34.15625 L 14.5625 -25.203125 C 15.125 -25.941406 15.703125 -26.535156 16.296875 -26.984375 C 17.898438 -28.222656 19.75 -28.84375 21.84375 -28.84375 C 23.925781 -28.84375 25.796875 -28.398438 27.453125 -27.515625 C 29.117188 -26.640625 30.421875 -25.492188 31.359375 -24.078125 C 32.296875 -22.660156 32.765625 -21.164062 32.765625 -19.59375 L 32.765625 -1.6875 L 36.125 -0.84375 L 36.125 0 L 28.84375 0 C 25.476562 0 23.796875 -1.679688 23.796875 -5.046875 L 23.796875 -19.59375 C 23.796875 -21.945312 23.375 -23.75 22.53125 -25 C 21.695312 -26.25 20.71875 -26.875 19.59375 -26.875 C 18.175781 -26.875 16.910156 -26.128906 15.796875 -24.640625 C 15.304688 -24.003906 14.894531 -23.257812 14.5625 -22.40625 L 14.5625 -1.6875 L 17.921875 -0.84375 L 17.921875 0 L 2.234375 0 Z M 2.234375 -0.84375 "/></g></g></g><g fill="#4b4c4d" fill-opacity="1"><g transform="translate(162.9936, 215.987299)"><g><path d="M 2.234375 -0.84375 L 5.59375 -1.6875 L 5.59375 -26.3125 L 2.234375 -27.15625 L 2.234375 -28 L 9.515625 -28 C 12.878906 -28 14.5625 -26.316406 14.5625 -22.953125 L 14.5625 -1.6875 L 17.921875 -0.84375 L 17.921875 0 L 2.234375 0 Z M 9.515625 -31.359375 C 8.398438 -31.359375 7.46875 -31.726562 6.71875 -32.46875 C 5.976562 -33.21875 5.609375 -34.15625 5.609375 -35.28125 C 5.609375 -36.394531 5.976562 -37.328125 6.71875 -38.078125 C 7.46875 -38.828125 8.398438 -39.203125 9.515625 -39.203125 C 10.640625 -39.203125 11.570312 -38.828125 12.3125 -38.078125 C 13.0625 -37.328125 13.4375 -36.394531 13.4375 -35.28125 C 13.4375 -34.15625 13.0625 -33.21875 12.3125 -32.46875 C 11.570312 -31.726562 10.640625 -31.359375 9.515625 -31.359375 Z M 9.515625 -31.359375 "/></g></g></g><g fill="#4b4c4d" fill-opacity="1"><g transform="translate(182.030937, 215.987299)"><g><path d="M 1.6875 -26.3125 L -1.125 -27.15625 L -1.125 -28 L 5.875 -28 C 7.820312 -28 9.363281 -27.597656 10.5 -26.796875 C 11.632812 -25.992188 12.613281 -24.804688 13.4375 -23.234375 L 20.109375 -10.296875 L 26.3125 -25.484375 L 22.125 -27.15625 L 22.125 -28 L 32.484375 -28 L 32.484375 -27.15625 L 28 -25.484375 L 17.359375 0.5625 L 15.6875 0.5625 Z M 1.6875 -26.3125 "/></g></g></g><g fill="#4b4c4d" fill-opacity="1"><g transform="translate(213.386556, 215.987299)"><g><path d="M 17.359375 0.84375 C 12.578125 0.84375 8.859375 -0.472656 6.203125 -3.109375 C 3.554688 -5.742188 2.234375 -9.375 2.234375 -14 C 2.234375 -17.019531 2.8125 -19.648438 3.96875 -21.890625 C 5.132812 -24.128906 6.75 -25.847656 8.8125 -27.046875 C 10.882812 -28.242188 13.265625 -28.84375 15.953125 -28.84375 C 18.640625 -28.84375 21 -28.335938 23.03125 -27.328125 C 25.070312 -26.316406 26.644531 -24.960938 27.75 -23.265625 C 28.851562 -21.566406 29.40625 -19.691406 29.40625 -17.640625 C 29.40625 -16.703125 29.3125 -15.898438 29.125 -15.234375 L 28.84375 -14.28125 C 27.238281 -13.945312 25.5 -13.664062 23.625 -13.4375 C 19.707031 -12.875 15.753906 -12.59375 11.765625 -12.59375 C 11.765625 -8.269531 12.359375 -5.179688 13.546875 -3.328125 C 14.742188 -1.484375 16.390625 -0.5625 18.484375 -0.5625 C 19.929688 -0.5625 21.28125 -0.90625 22.53125 -1.59375 C 23.789062 -2.28125 24.78125 -3.191406 25.5 -4.328125 C 26.226562 -5.472656 26.59375 -6.644531 26.59375 -7.84375 L 28 -7.84375 C 28 -6.34375 27.550781 -4.921875 26.65625 -3.578125 C 25.757812 -2.234375 24.507812 -1.160156 22.90625 -0.359375 C 21.300781 0.441406 19.453125 0.84375 17.359375 0.84375 Z M 11.765625 -14 C 14.148438 -14 16.085938 -14.09375 17.578125 -14.28125 C 18.210938 -14.320312 18.882812 -14.414062 19.59375 -14.5625 C 19.632812 -14.75 19.726562 -15.160156 19.875 -15.796875 C 20.0625 -16.722656 20.15625 -17.710938 20.15625 -18.765625 C 20.15625 -21.859375 19.742188 -24.125 18.921875 -25.5625 C 18.109375 -27 17.117188 -27.71875 15.953125 -27.71875 C 13.160156 -27.71875 11.765625 -23.144531 11.765625 -14 Z M 11.765625 -14 "/></g></g></g><g fill="#000000" fill-opacity="1"><g transform="translate(128.895024, 172.887308)"><g><path d="M 2.453125 -0.203125 L 3.296875 -0.421875 L 3.296875 -9.453125 L 1.6875 -9.453125 C 1.6875 -8.878906 1.53125 -8.332031 1.21875 -7.8125 C 1.082031 -7.59375 0.929688 -7.414062 0.765625 -7.28125 L 0.34375 -7.28125 L 0.34375 -9.796875 L 8.546875 -9.796875 L 8.546875 -7.28125 L 8.125 -7.28125 C 7.945312 -7.414062 7.789062 -7.59375 7.65625 -7.8125 C 7.351562 -8.3125 7.203125 -8.859375 7.203125 -9.453125 L 5.59375 -9.453125 L 5.59375 -0.421875 L 6.4375 -0.203125 L 6.4375 0 L 2.453125 0 Z M 2.453125 -0.203125 "/></g></g></g><g fill="#000000" fill-opacity="1"><g transform="translate(143.380068, 172.887308)"><g><path d="M 0.703125 0 L 0.703125 -0.203125 L 1.546875 -0.421875 L 1.546875 -9.375 L 0.703125 -9.59375 L 0.703125 -9.796875 L 4.6875 -9.796875 L 4.6875 -9.59375 L 3.84375 -9.375 L 3.84375 -5.046875 L 6.859375 -5.046875 L 6.859375 -9.375 L 6.015625 -9.59375 L 6.015625 -9.796875 L 10.015625 -9.796875 L 10.015625 -9.59375 L 9.171875 -9.375 L 9.171875 -0.421875 L 10.015625 -0.203125 L 10.015625 0 L 6.015625 0 L 6.015625 -0.203125 L 6.859375 -0.421875 L 6.859375 -4.6875 L 3.84375 -4.6875 L 3.84375 -0.421875 L 4.6875 -0.203125 L 4.6875 0 Z M 0.703125 0 "/></g></g></g><g fill="#000000" fill-opacity="1"><g transform="translate(159.684093, 172.887308)"><g><path d="M 0.703125 -0.203125 L 1.546875 -0.421875 L 1.546875 -9.375 L 0.703125 -9.59375 L 0.703125 -9.796875 L 8.1875 -9.796875 L 8.1875 -7.28125 L 7.765625 -7.28125 C 7.585938 -7.414062 7.4375 -7.59375 7.3125 -7.8125 C 7.007812 -8.3125 6.859375 -8.859375 6.859375 -9.453125 L 3.84375 -9.453125 L 3.84375 -5.046875 L 5.453125 -5.046875 C 5.523438 -5.398438 5.648438 -5.726562 5.828125 -6.03125 C 5.898438 -6.175781 5.988281 -6.3125 6.09375 -6.4375 L 6.515625 -6.4375 L 6.515625 -3.296875 L 6.09375 -3.296875 C 5.988281 -3.421875 5.898438 -3.554688 5.828125 -3.703125 C 5.648438 -4.003906 5.523438 -4.332031 5.453125 -4.6875 L 3.84375 -4.6875 L 3.84375 -0.34375 L 7.140625 -0.34375 C 7.140625 -0.9375 7.289062 -1.484375 7.59375 -1.984375 C 7.71875 -2.203125 7.867188 -2.378906 8.046875 -2.515625 L 8.46875 -2.515625 L 8.46875 0 L 0.703125 0 Z M 0.703125 -0.203125 "/></g></g></g></svg>