<svg xmlns="http://www.w3.org/2000/svg" xmlns:xlink="http://www.w3.org/1999/xlink" width="500" zoomAndPan="magnify" viewBox="0 0 375 374.999991" height="500" preserveAspectRatio="xMidYMid meet" version="1.0"><defs><clipPath id="979e23e0ac"><path d="M 112.5 124 L 262.5 124 L 262.5 251.34375 L 112.5 251.34375 Z M 112.5 124 " clip-rule="nonzero"/></clipPath></defs><g clip-path="url(#979e23e0ac)"><path fill="#000000" d="M 235.222656 154.566406 L 235.222656 135.707031 L 216.390625 135.707031 C 216.0625 135.707031 215.742188 135.644531 215.4375 135.519531 C 215.132812 135.390625 214.867188 135.210938 214.632812 134.976562 C 214.398438 134.746094 214.21875 134.476562 214.09375 134.171875 C 213.96875 133.867188 213.902344 133.546875 213.902344 133.21875 C 213.902344 132.886719 213.96875 132.570312 214.09375 132.265625 C 214.21875 131.957031 214.398438 131.691406 214.632812 131.457031 C 214.867188 131.222656 215.132812 131.042969 215.4375 130.917969 C 215.742188 130.789062 216.0625 130.726562 216.390625 130.726562 L 236.824219 130.726562 C 237.269531 130.726562 237.699219 130.808594 238.109375 130.980469 C 238.523438 131.148438 238.886719 131.390625 239.203125 131.707031 C 239.519531 132.019531 239.765625 132.382812 239.9375 132.792969 C 240.109375 133.207031 240.199219 133.636719 240.199219 134.082031 L 240.199219 154.566406 C 240.199219 154.894531 240.136719 155.214844 240.011719 155.519531 C 239.882812 155.824219 239.703125 156.09375 239.472656 156.324219 C 239.238281 156.558594 238.96875 156.738281 238.664062 156.867188 C 238.359375 156.992188 238.042969 157.054688 237.714844 157.054688 C 237.382812 157.054688 237.066406 156.992188 236.761719 156.867188 C 236.457031 156.738281 236.1875 156.558594 235.953125 156.324219 C 235.722656 156.09375 235.542969 155.824219 235.414062 155.519531 C 235.289062 155.214844 235.226562 154.894531 235.226562 154.566406 Z M 133.394531 193.835938 L 116.136719 193.835938 C 115.796875 193.835938 115.460938 193.785156 115.136719 193.679688 C 114.8125 193.578125 114.507812 193.429688 114.226562 193.234375 C 113.945312 193.042969 113.699219 192.808594 113.488281 192.539062 C 113.277344 192.269531 113.113281 191.976562 112.992188 191.65625 C 112.871094 191.335938 112.800781 191.003906 112.78125 190.664062 C 112.761719 190.320312 112.792969 189.984375 112.875 189.652344 C 112.957031 189.320312 113.085938 189.007812 113.265625 188.714844 C 113.441406 188.425781 113.65625 188.164062 113.914062 187.9375 L 185.277344 125.011719 C 185.582031 124.742188 185.929688 124.535156 186.3125 124.390625 C 186.695312 124.246094 187.089844 124.171875 187.5 124.171875 C 187.910156 124.171875 188.304688 124.246094 188.6875 124.390625 C 189.070312 124.535156 189.417969 124.742188 189.722656 125.011719 L 261.085938 187.9375 C 261.34375 188.164062 261.558594 188.421875 261.738281 188.714844 C 261.914062 189.007812 262.046875 189.320312 262.128906 189.652344 C 262.210938 189.984375 262.242188 190.324219 262.222656 190.664062 C 262.203125 191.007812 262.132812 191.335938 262.011719 191.65625 C 261.890625 191.976562 261.722656 192.273438 261.511719 192.542969 C 261.304688 192.8125 261.058594 193.046875 260.777344 193.238281 C 260.496094 193.433594 260.191406 193.582031 259.863281 193.683594 C 259.539062 193.789062 259.203125 193.839844 258.863281 193.839844 L 241.605469 193.839844 L 241.605469 247.914062 C 241.605469 248.363281 241.519531 248.792969 241.347656 249.207031 C 241.175781 249.617188 240.933594 249.980469 240.617188 250.296875 C 240.304688 250.613281 239.9375 250.859375 239.527344 251.027344 C 239.113281 251.199219 238.6875 251.285156 238.238281 251.285156 L 205.136719 251.285156 C 204.691406 251.285156 204.261719 251.199219 203.847656 251.027344 C 203.4375 250.859375 203.074219 250.613281 202.757812 250.296875 C 202.441406 249.980469 202.199219 249.617188 202.027344 249.207031 C 201.855469 248.792969 201.769531 248.363281 201.769531 247.914062 L 201.769531 218.121094 L 173.21875 218.121094 L 173.21875 247.914062 C 173.21875 248.359375 173.132812 248.789062 172.960938 249.199219 C 172.792969 249.613281 172.550781 249.976562 172.234375 250.292969 C 171.921875 250.609375 171.558594 250.851562 171.148438 251.023438 C 170.738281 251.199219 170.308594 251.285156 169.863281 251.285156 L 136.757812 251.285156 C 136.3125 251.285156 135.882812 251.199219 135.472656 251.027344 C 135.058594 250.855469 134.695312 250.613281 134.378906 250.296875 C 134.066406 249.980469 133.820312 249.617188 133.652344 249.203125 C 133.480469 248.792969 133.394531 248.363281 133.394531 247.914062 Z M 135.003906 188.855469 C 135.449219 188.855469 135.878906 188.941406 136.289062 189.113281 C 136.703125 189.28125 137.066406 189.527344 137.382812 189.84375 C 137.699219 190.160156 137.941406 190.523438 138.113281 190.933594 C 138.28125 191.347656 138.367188 191.777344 138.367188 192.226562 L 138.367188 246.3125 L 168.242188 246.3125 L 168.242188 216.511719 C 168.242188 216.066406 168.328125 215.636719 168.5 215.222656 C 168.671875 214.808594 168.914062 214.445312 169.230469 214.128906 C 169.546875 213.8125 169.910156 213.570312 170.320312 213.398438 C 170.734375 213.226562 171.164062 213.140625 171.609375 213.140625 L 203.390625 213.140625 C 203.835938 213.140625 204.265625 213.226562 204.679688 213.398438 C 205.089844 213.570312 205.453125 213.8125 205.769531 214.128906 C 206.085938 214.445312 206.328125 214.808594 206.5 215.222656 C 206.671875 215.636719 206.757812 216.066406 206.757812 216.511719 L 206.757812 246.3125 L 236.632812 246.3125 L 236.632812 192.222656 C 236.632812 191.773438 236.71875 191.34375 236.886719 190.933594 C 237.058594 190.519531 237.300781 190.15625 237.617188 189.839844 C 237.933594 189.523438 238.296875 189.28125 238.710938 189.109375 C 239.121094 188.9375 239.550781 188.851562 239.996094 188.851562 L 254.597656 188.851562 L 187.5 129.691406 L 120.402344 188.855469 Z M 135.003906 188.855469 " fill-opacity="1" fill-rule="nonzero"/></g></svg>