<svg xmlns="http://www.w3.org/2000/svg" xmlns:xlink="http://www.w3.org/1999/xlink" width="500" zoomAndPan="magnify" viewBox="0 0 375 374.999991" height="500" preserveAspectRatio="xMidYMid meet" version="1.0"><defs><clipPath id="555388784b"><path d="M 17.949219 15.519531 L 111.636719 15.519531 L 111.636719 120.503906 L 17.949219 120.503906 Z M 17.949219 15.519531 " clip-rule="nonzero"/></clipPath><clipPath id="b013d8cc12"><path d="M 93.265625 56.585938 L 125.890625 56.585938 L 125.890625 89.378906 L 93.265625 89.378906 Z M 93.265625 56.585938 " clip-rule="nonzero"/></clipPath></defs><g clip-path="url(#555388784b)"><path fill="#1d1d1b" d="M 106.164062 120.503906 L 23.195312 120.503906 C 20.300781 120.503906 17.949219 118.148438 17.949219 115.253906 L 17.949219 20.769531 C 17.949219 17.875 20.300781 15.515625 23.195312 15.515625 L 106.164062 15.515625 C 109.058594 15.515625 111.414062 17.875 111.414062 20.769531 L 111.414062 32.460938 C 111.414062 33.429688 110.628906 34.210938 109.664062 34.210938 C 108.695312 34.210938 107.914062 33.429688 107.914062 32.460938 L 107.914062 20.769531 C 107.914062 19.804688 107.128906 19.019531 106.164062 19.019531 L 23.195312 19.019531 C 22.230469 19.019531 21.445312 19.804688 21.445312 20.769531 L 21.445312 115.253906 C 21.445312 116.21875 22.230469 117.003906 23.195312 117.003906 L 106.164062 117.003906 C 107.128906 117.003906 107.914062 116.21875 107.914062 115.253906 L 107.914062 93.125 C 107.914062 92.15625 108.695312 91.375 109.664062 91.375 C 110.628906 91.375 111.414062 92.15625 111.414062 93.125 L 111.414062 115.253906 C 111.414062 118.148438 109.058594 120.503906 106.164062 120.503906 " fill-opacity="1" fill-rule="nonzero"/></g><path fill="#1d1d1b" d="M 39.765625 28.542969 L 29.730469 28.542969 C 28.765625 28.542969 27.984375 27.761719 27.984375 26.792969 C 27.984375 25.824219 28.765625 25.042969 29.730469 25.042969 L 39.765625 25.042969 C 40.734375 25.042969 41.515625 25.824219 41.515625 26.792969 C 41.515625 27.761719 40.734375 28.542969 39.765625 28.542969 " fill-opacity="1" fill-rule="nonzero"/><path fill="#1d1d1b" d="M 39.765625 35.125 L 29.730469 35.125 C 28.765625 35.125 27.984375 34.339844 27.984375 33.375 C 27.984375 32.40625 28.765625 31.621094 29.730469 31.621094 L 39.765625 31.621094 C 40.734375 31.621094 41.515625 32.40625 41.515625 33.375 C 41.515625 34.339844 40.734375 35.125 39.765625 35.125 " fill-opacity="1" fill-rule="nonzero"/><path fill="#1d1d1b" d="M 39.765625 41.707031 L 29.730469 41.707031 C 28.765625 41.707031 27.984375 40.921875 27.984375 39.953125 C 27.984375 38.984375 28.765625 38.203125 29.730469 38.203125 L 39.765625 38.203125 C 40.734375 38.203125 41.515625 38.984375 41.515625 39.953125 C 41.515625 40.921875 40.734375 41.707031 39.765625 41.707031 " fill-opacity="1" fill-rule="nonzero"/><path fill="#1d1d1b" d="M 64.679688 34.210938 C 59.4375 34.210938 55.175781 38.480469 55.175781 43.726562 C 55.175781 48.972656 59.4375 53.242188 64.679688 53.242188 C 69.921875 53.242188 74.183594 48.972656 74.183594 43.726562 C 74.183594 38.480469 69.921875 34.210938 64.679688 34.210938 Z M 64.679688 56.742188 C 57.511719 56.742188 51.675781 50.90625 51.675781 43.726562 C 51.675781 36.546875 57.511719 30.710938 64.679688 30.710938 C 71.851562 30.710938 77.683594 36.546875 77.683594 43.726562 C 77.683594 50.90625 71.851562 56.742188 64.679688 56.742188 " fill-opacity="1" fill-rule="nonzero"/><path fill="#1d1d1b" d="M 82.847656 82.117188 L 46.515625 82.117188 C 45.546875 82.117188 44.765625 81.335938 44.765625 80.367188 C 44.765625 71.277344 48.625 62.84375 54.839844 58.367188 C 55.625 57.796875 56.71875 57.980469 57.28125 58.765625 C 57.84375 59.546875 57.667969 60.644531 56.882812 61.207031 C 51.957031 64.761719 48.761719 71.320312 48.316406 78.617188 L 81.042969 78.617188 C 80.597656 71.320312 77.402344 64.761719 72.476562 61.210938 C 71.691406 60.644531 71.515625 59.546875 72.078125 58.765625 C 72.640625 57.976562 73.746094 57.800781 74.519531 58.363281 C 80.734375 62.84375 84.597656 71.277344 84.597656 80.367188 C 84.597656 81.335938 83.8125 82.117188 82.847656 82.117188 " fill-opacity="1" fill-rule="nonzero"/><path fill="#1d1d1b" d="M 64.679688 71.378906 C 64.261719 71.378906 63.84375 71.230469 63.511719 70.929688 C 62.792969 70.285156 62.730469 69.175781 63.378906 68.457031 L 72.195312 58.621094 C 72.84375 57.898438 73.949219 57.84375 74.667969 58.488281 C 75.382812 59.132812 75.445312 60.242188 74.800781 60.960938 L 65.980469 70.796875 C 65.636719 71.183594 65.15625 71.378906 64.679688 71.378906 " fill-opacity="1" fill-rule="nonzero"/><path fill="#1d1d1b" d="M 64.679688 71.378906 C 64.199219 71.378906 63.722656 71.183594 63.378906 70.796875 L 54.5625 60.960938 C 53.914062 60.238281 53.976562 59.132812 54.695312 58.488281 C 55.414062 57.835938 56.519531 57.894531 57.164062 58.621094 L 65.980469 68.457031 C 66.628906 69.179688 66.566406 70.285156 65.847656 70.929688 C 65.515625 71.230469 65.097656 71.378906 64.679688 71.378906 " fill-opacity="1" fill-rule="nonzero"/><path fill="#1d1d1b" d="M 34.5 94.875 C 33.535156 94.875 32.75 95.660156 32.75 96.625 L 32.75 106.765625 C 32.75 107.730469 33.535156 108.519531 34.5 108.519531 L 52.363281 108.519531 C 53.328125 108.519531 54.113281 107.730469 54.113281 106.765625 L 54.113281 96.625 C 54.113281 95.660156 53.328125 94.875 52.363281 94.875 Z M 52.363281 112.019531 L 34.5 112.019531 C 31.605469 112.019531 29.253906 109.664062 29.253906 106.765625 L 29.253906 96.625 C 29.253906 93.730469 31.605469 91.375 34.5 91.375 L 52.363281 91.375 C 55.257812 91.375 57.613281 93.730469 57.613281 96.625 L 57.613281 106.765625 C 57.613281 109.664062 55.257812 112.019531 52.363281 112.019531 " fill-opacity="1" fill-rule="nonzero"/><path fill="#1d1d1b" d="M 76.996094 94.875 C 76.035156 94.875 75.25 95.660156 75.25 96.625 L 75.25 106.765625 C 75.25 107.730469 76.035156 108.519531 76.996094 108.519531 L 94.863281 108.519531 C 95.824219 108.519531 96.613281 107.730469 96.613281 106.765625 L 96.613281 96.625 C 96.613281 95.660156 95.824219 94.875 94.863281 94.875 Z M 94.863281 112.019531 L 76.996094 112.019531 C 74.101562 112.019531 71.75 109.664062 71.75 106.765625 L 71.75 96.625 C 71.75 93.730469 74.101562 91.375 76.996094 91.375 L 94.863281 91.375 C 97.757812 91.375 100.109375 93.730469 100.109375 96.625 L 100.109375 106.765625 C 100.109375 109.664062 97.757812 112.019531 94.863281 112.019531 " fill-opacity="1" fill-rule="nonzero"/><path fill="#1d1d1b" d="M 43.433594 106.390625 C 42.464844 106.390625 41.683594 105.609375 41.683594 104.640625 L 41.683594 98.753906 C 41.683594 97.785156 42.464844 97.003906 43.433594 97.003906 C 44.402344 97.003906 45.183594 97.785156 45.183594 98.753906 L 45.183594 104.640625 C 45.183594 105.609375 44.402344 106.390625 43.433594 106.390625 " fill-opacity="1" fill-rule="nonzero"/><path fill="#1d1d1b" d="M 46.375 103.449219 L 40.492188 103.449219 C 39.523438 103.449219 38.742188 102.667969 38.742188 101.699219 C 38.742188 100.730469 39.523438 99.949219 40.492188 99.949219 L 46.375 99.949219 C 47.339844 99.949219 48.121094 100.730469 48.121094 101.699219 C 48.121094 102.667969 47.339844 103.449219 46.375 103.449219 " fill-opacity="1" fill-rule="nonzero"/><path fill="#1d1d1b" d="M 84.363281 107.171875 C 83.851562 107.171875 83.363281 106.945312 83.03125 106.550781 L 79.949219 102.914062 C 79.324219 102.179688 79.414062 101.074219 80.148438 100.449219 C 80.882812 99.824219 81.992188 99.914062 82.613281 100.652344 L 84.351562 102.699219 L 89.234375 96.851562 C 89.859375 96.109375 90.960938 96.011719 91.699219 96.628906 C 92.441406 97.25 92.539062 98.351562 91.921875 99.09375 L 85.707031 106.542969 C 85.375 106.941406 84.890625 107.078125 84.363281 107.171875 " fill-opacity="1" fill-rule="nonzero"/><g clip-path="url(#b013d8cc12)"><path fill="#1d1d1b" d="M 98.6875 60.265625 C 97.722656 60.265625 96.9375 61.054688 96.9375 62.015625 L 96.9375 84 C 96.9375 84.964844 97.722656 85.75 98.6875 85.75 L 120.640625 85.75 C 121.605469 85.75 122.390625 84.964844 122.390625 84 L 122.390625 62.015625 C 122.390625 61.054688 121.605469 60.265625 120.640625 60.265625 Z M 120.640625 89.253906 L 98.6875 89.253906 C 95.792969 89.253906 93.4375 86.894531 93.4375 84 L 93.4375 62.015625 C 93.4375 59.121094 95.792969 56.765625 98.6875 56.765625 L 120.640625 56.765625 C 123.535156 56.765625 125.890625 59.121094 125.890625 62.015625 L 125.890625 84 C 125.890625 86.894531 123.535156 89.253906 120.640625 89.253906 " fill-opacity="1" fill-rule="nonzero"/></g><path fill="#1d1d1b" d="M 119.808594 60.265625 C 118.839844 60.265625 118.058594 59.484375 118.058594 58.515625 L 118.058594 53.574219 C 118.058594 47.15625 114.292969 41.9375 109.664062 41.9375 C 105.882812 41.9375 102.550781 45.480469 101.554688 50.554688 C 101.371094 51.511719 100.429688 52.125 99.507812 51.9375 C 98.554688 51.753906 97.9375 50.832031 98.125 49.886719 C 99.441406 43.144531 104.1875 38.433594 109.664062 38.433594 C 116.222656 38.433594 121.558594 45.222656 121.558594 53.574219 L 121.558594 58.515625 C 121.558594 59.484375 120.773438 60.265625 119.808594 60.265625 " fill-opacity="1" fill-rule="nonzero"/><path fill="#1d1d1b" d="M 109.664062 76.355469 C 108.695312 76.355469 107.914062 75.570312 107.914062 74.601562 L 107.914062 71.023438 C 107.914062 70.054688 108.695312 69.273438 109.664062 69.273438 C 110.628906 69.273438 111.414062 70.054688 111.414062 71.023438 L 111.414062 74.601562 C 111.414062 75.570312 110.628906 76.355469 109.664062 76.355469 " fill-opacity="1" fill-rule="nonzero"/></svg>