<svg xmlns="http://www.w3.org/2000/svg" xmlns:xlink="http://www.w3.org/1999/xlink" width="500" zoomAndPan="magnify" viewBox="0 0 375 374.999991" height="500" preserveAspectRatio="xMidYMid meet" version="1.0"><defs><clipPath id="d1faa74c8b"><path d="M 51 23.753906 L 141 23.753906 L 141 113 L 51 113 Z M 51 23.753906 " clip-rule="nonzero"/></clipPath><clipPath id="fe43be0b84"><path d="M 21.640625 125 L 171.640625 125 L 171.640625 173.753906 L 21.640625 173.753906 Z M 21.640625 125 " clip-rule="nonzero"/></clipPath></defs><g clip-path="url(#d1faa74c8b)"><path fill="#000000" d="M 51.894531 67.992188 C 51.921875 69.441406 52.023438 70.882812 52.191406 72.324219 C 52.359375 73.761719 52.59375 75.191406 52.898438 76.609375 C 53.203125 78.023438 53.574219 79.421875 54.011719 80.804688 C 54.449219 82.1875 54.953125 83.542969 55.523438 84.875 C 56.089844 86.210938 56.71875 87.511719 57.414062 88.785156 C 58.105469 90.058594 58.859375 91.292969 59.667969 92.496094 C 60.480469 93.695312 61.347656 94.855469 62.269531 95.972656 C 63.191406 97.089844 64.164062 98.160156 65.191406 99.1875 C 66.214844 100.210938 67.285156 101.183594 68.402344 102.105469 C 69.519531 103.027344 70.679688 103.894531 71.882812 104.707031 C 73.082031 105.519531 74.320312 106.269531 75.589844 106.964844 C 76.863281 107.65625 78.167969 108.285156 79.5 108.855469 C 80.832031 109.421875 82.191406 109.925781 83.570312 110.363281 C 84.953125 110.800781 86.351562 111.175781 87.769531 111.476562 C 89.1875 111.78125 90.613281 112.019531 92.054688 112.1875 C 93.492188 112.355469 94.9375 112.453125 96.386719 112.484375 C 97.835938 112.453125 99.277344 112.355469 100.71875 112.1875 C 102.15625 112.019531 103.585938 111.78125 105 111.476562 C 106.417969 111.171875 107.816406 110.800781 109.199219 110.363281 C 110.578125 109.921875 111.9375 109.421875 113.269531 108.851562 C 114.601562 108.285156 115.90625 107.652344 117.175781 106.960938 C 118.449219 106.265625 119.6875 105.515625 120.886719 104.703125 C 122.085938 103.894531 123.246094 103.027344 124.363281 102.105469 C 125.480469 101.183594 126.554688 100.207031 127.578125 99.183594 C 128.601562 98.160156 129.574219 97.089844 130.5 95.96875 C 131.421875 94.851562 132.285156 93.691406 133.097656 92.492188 C 133.910156 91.292969 134.660156 90.054688 135.355469 88.78125 C 136.046875 87.511719 136.679688 86.207031 137.246094 84.875 C 137.816406 83.542969 138.316406 82.183594 138.757812 80.804688 C 139.195312 79.421875 139.566406 78.023438 139.871094 76.605469 C 140.175781 75.191406 140.414062 73.761719 140.582031 72.324219 C 140.75 70.882812 140.847656 69.441406 140.878906 67.992188 C 140.878906 66.535156 140.804688 65.082031 140.664062 63.628906 C 140.519531 62.179688 140.304688 60.742188 140.023438 59.3125 C 139.738281 57.882812 139.382812 56.46875 138.960938 55.074219 C 138.539062 53.679688 138.046875 52.3125 137.492188 50.964844 C 136.933594 49.617188 136.308594 48.304688 135.625 47.019531 C 134.9375 45.734375 134.1875 44.484375 133.378906 43.273438 C 132.570312 42.0625 131.703125 40.890625 130.777344 39.765625 C 129.851562 38.640625 128.875 37.5625 127.847656 36.53125 C 126.816406 35.5 125.738281 34.523438 124.609375 33.597656 C 123.484375 32.675781 122.316406 31.808594 121.105469 30.996094 C 119.890625 30.1875 118.644531 29.441406 117.359375 28.753906 C 116.074219 28.066406 114.757812 27.445312 113.410156 26.886719 C 112.066406 26.328125 110.695312 25.839844 109.300781 25.414062 C 107.90625 24.992188 106.496094 24.640625 105.066406 24.355469 C 103.636719 24.070312 102.195312 23.855469 100.746094 23.714844 C 99.296875 23.570312 97.84375 23.5 96.386719 23.5 C 94.929688 23.5 93.476562 23.570312 92.023438 23.714844 C 90.574219 23.855469 89.136719 24.070312 87.707031 24.355469 C 86.277344 24.640625 84.863281 24.992188 83.46875 25.414062 C 82.074219 25.839844 80.707031 26.328125 79.359375 26.886719 C 78.011719 27.445312 76.699219 28.066406 75.414062 28.753906 C 74.128906 29.441406 72.878906 30.1875 71.667969 30.996094 C 70.457031 31.808594 69.285156 32.675781 68.160156 33.597656 C 67.035156 34.523438 65.957031 35.5 64.925781 36.53125 C 63.894531 37.5625 62.917969 38.640625 61.992188 39.765625 C 61.070312 40.890625 60.203125 42.0625 59.390625 43.273438 C 58.582031 44.484375 57.835938 45.734375 57.148438 47.019531 C 56.460938 48.304688 55.839844 49.617188 55.28125 50.964844 C 54.722656 52.3125 54.234375 53.679688 53.808594 55.074219 C 53.386719 56.46875 53.03125 57.882812 52.75 59.3125 C 52.464844 60.742188 52.25 62.179688 52.109375 63.628906 C 51.964844 65.082031 51.894531 66.535156 51.894531 67.992188 Z M 120.953125 95.390625 C 120.054688 96.1875 119.121094 96.941406 118.148438 97.648438 C 117.175781 98.355469 116.171875 99.015625 115.136719 99.621094 C 114.097656 100.230469 113.035156 100.789062 111.945312 101.292969 C 110.855469 101.800781 109.742188 102.25 108.605469 102.648438 C 107.472656 103.046875 106.320312 103.386719 105.152344 103.671875 C 103.984375 103.957031 102.804688 104.183594 101.617188 104.351562 C 100.425781 104.523438 99.230469 104.632812 98.027344 104.6875 C 96.828125 104.742188 95.628906 104.734375 94.425781 104.671875 C 93.226562 104.609375 92.03125 104.488281 90.84375 104.304688 C 89.65625 104.125 88.476562 103.890625 87.3125 103.59375 C 86.148438 103.300781 85 102.949219 83.867188 102.542969 C 82.738281 102.136719 81.628906 101.675781 80.542969 101.160156 C 79.457031 100.644531 78.394531 100.078125 77.363281 99.460938 C 76.335938 98.84375 75.335938 98.175781 74.371094 97.460938 C 73.402344 96.746094 72.472656 95.984375 71.582031 95.179688 C 70.691406 94.375 69.839844 93.527344 69.03125 92.636719 C 69.375 92.042969 69.742188 91.457031 70.125 90.886719 C 70.507812 90.316406 70.910156 89.757812 71.332031 89.210938 C 71.75 88.664062 72.1875 88.132812 72.644531 87.617188 C 73.097656 87.101562 73.570312 86.597656 74.058594 86.113281 C 74.546875 85.628906 75.050781 85.15625 75.566406 84.703125 C 76.085938 84.25 76.621094 83.816406 77.167969 83.398438 C 77.714844 82.976562 78.273438 82.578125 78.847656 82.195312 C 79.417969 81.816406 80.003906 81.453125 80.601562 81.109375 C 81.199219 80.765625 81.804688 80.441406 82.425781 80.136719 C 83.042969 79.832031 83.667969 79.550781 84.304688 79.285156 C 84.941406 79.023438 85.585938 78.78125 86.238281 78.5625 C 86.890625 78.339844 87.550781 78.140625 88.214844 77.960938 C 88.878906 77.785156 89.550781 77.628906 90.226562 77.496094 C 90.902344 77.359375 91.582031 77.25 92.265625 77.160156 C 92.945312 77.070312 93.632812 77.003906 94.320312 76.957031 C 95.007812 76.914062 95.695312 76.890625 96.382812 76.890625 C 97.070312 76.890625 97.761719 76.914062 98.445312 76.957031 C 99.132812 77.003906 99.820312 77.070312 100.503906 77.160156 C 101.183594 77.25 101.863281 77.359375 102.539062 77.496094 C 103.214844 77.628906 103.886719 77.785156 104.550781 77.960938 C 105.214844 78.140625 105.875 78.339844 106.527344 78.5625 C 107.179688 78.78125 107.824219 79.023438 108.460938 79.285156 C 109.097656 79.550781 109.722656 79.832031 110.34375 80.136719 C 110.960938 80.441406 111.566406 80.765625 112.164062 81.109375 C 112.761719 81.453125 113.347656 81.816406 113.917969 82.195312 C 114.492188 82.578125 115.054688 82.976562 115.601562 83.398438 C 116.148438 83.816406 116.679688 84.25 117.199219 84.703125 C 117.71875 85.15625 118.21875 85.628906 118.707031 86.113281 C 119.195312 86.597656 119.667969 87.101562 120.121094 87.617188 C 120.578125 88.132812 121.015625 88.664062 121.4375 89.210938 C 121.855469 89.757812 122.257812 90.316406 122.640625 90.886719 C 123.027344 91.457031 123.390625 92.042969 123.738281 92.636719 C 122.859375 93.605469 121.929688 94.523438 120.953125 95.390625 Z M 84.945312 57.820312 C 84.945312 57.070312 85.019531 56.328125 85.164062 55.589844 C 85.3125 54.851562 85.527344 54.136719 85.816406 53.445312 C 86.101562 52.75 86.457031 52.089844 86.871094 51.464844 C 87.289062 50.839844 87.765625 50.261719 88.296875 49.730469 C 88.828125 49.199219 89.40625 48.726562 90.03125 48.308594 C 90.652344 47.890625 91.3125 47.539062 92.007812 47.25 C 92.703125 46.964844 93.417969 46.746094 94.152344 46.601562 C 94.890625 46.453125 95.632812 46.382812 96.386719 46.382812 C 97.136719 46.382812 97.878906 46.453125 98.617188 46.601562 C 99.355469 46.746094 100.070312 46.964844 100.761719 47.25 C 101.457031 47.539062 102.117188 47.890625 102.742188 48.308594 C 103.367188 48.726562 103.945312 49.199219 104.476562 49.730469 C 105.007812 50.261719 105.480469 50.839844 105.898438 51.464844 C 106.316406 52.089844 106.667969 52.75 106.957031 53.445312 C 107.242188 54.136719 107.460938 54.851562 107.605469 55.589844 C 107.753906 56.328125 107.828125 57.070312 107.828125 57.820312 C 107.828125 58.574219 107.753906 59.316406 107.605469 60.054688 C 107.460938 60.789062 107.242188 61.503906 106.957031 62.199219 C 106.667969 62.894531 106.316406 63.554688 105.898438 64.175781 C 105.480469 64.800781 105.007812 65.378906 104.476562 65.910156 C 103.945312 66.441406 103.367188 66.917969 102.742188 67.335938 C 102.117188 67.75 101.457031 68.105469 100.761719 68.390625 C 100.070312 68.679688 99.355469 68.894531 98.617188 69.042969 C 97.878906 69.1875 97.136719 69.261719 96.386719 69.261719 C 95.632812 69.261719 94.890625 69.1875 94.15625 69.039062 C 93.417969 68.894531 92.703125 68.675781 92.007812 68.386719 C 91.316406 68.101562 90.65625 67.746094 90.03125 67.328125 C 89.410156 66.914062 88.832031 66.4375 88.300781 65.90625 C 87.769531 65.375 87.292969 64.796875 86.878906 64.175781 C 86.460938 63.550781 86.105469 62.890625 85.820312 62.199219 C 85.53125 61.503906 85.3125 60.789062 85.167969 60.050781 C 85.019531 59.316406 84.945312 58.574219 84.945312 57.820312 Z M 133.25 67.992188 C 133.246094 71.132812 132.847656 74.222656 132.046875 77.265625 C 131.25 80.304688 130.078125 83.191406 128.539062 85.929688 C 126.203125 82.597656 123.410156 79.707031 120.164062 77.253906 C 116.917969 74.800781 113.375 72.90625 109.53125 71.570312 C 109.988281 71.136719 110.421875 70.679688 110.832031 70.203125 C 111.246094 69.722656 111.632812 69.226562 111.996094 68.710938 C 112.359375 68.191406 112.695312 67.660156 113.003906 67.109375 C 113.3125 66.558594 113.59375 65.996094 113.847656 65.417969 C 114.101562 64.839844 114.324219 64.25 114.519531 63.652344 C 114.714844 63.050781 114.878906 62.441406 115.015625 61.824219 C 115.148438 61.210938 115.253906 60.585938 115.328125 59.960938 C 115.398438 59.332031 115.441406 58.703125 115.453125 58.074219 C 115.460938 57.441406 115.441406 56.8125 115.390625 56.183594 C 115.335938 55.554688 115.253906 54.929688 115.140625 54.308594 C 115.023438 53.6875 114.878906 53.074219 114.707031 52.46875 C 114.53125 51.863281 114.324219 51.265625 114.089844 50.679688 C 113.855469 50.09375 113.59375 49.523438 113.304688 48.960938 C 113.011719 48.402344 112.695312 47.859375 112.347656 47.328125 C 112.003906 46.800781 111.632812 46.289062 111.238281 45.800781 C 110.84375 45.308594 110.421875 44.835938 109.980469 44.386719 C 109.539062 43.9375 109.074219 43.511719 108.589844 43.105469 C 108.105469 42.703125 107.601562 42.324219 107.078125 41.96875 C 106.554688 41.617188 106.015625 41.289062 105.460938 40.988281 C 104.90625 40.6875 104.335938 40.417969 103.753906 40.171875 C 103.171875 39.929688 102.582031 39.714844 101.976562 39.527344 C 101.375 39.34375 100.761719 39.1875 100.144531 39.066406 C 99.527344 38.941406 98.902344 38.847656 98.273438 38.785156 C 97.648438 38.722656 97.015625 38.691406 96.386719 38.691406 C 95.753906 38.691406 95.125 38.722656 94.496094 38.785156 C 93.871094 38.847656 93.246094 38.941406 92.628906 39.066406 C 92.007812 39.1875 91.398438 39.34375 90.792969 39.527344 C 90.191406 39.714844 89.597656 39.929688 89.015625 40.171875 C 88.433594 40.417969 87.867188 40.6875 87.3125 40.988281 C 86.753906 41.289062 86.21875 41.617188 85.695312 41.96875 C 85.171875 42.324219 84.667969 42.703125 84.183594 43.105469 C 83.699219 43.511719 83.234375 43.9375 82.792969 44.386719 C 82.347656 44.835938 81.929688 45.308594 81.535156 45.800781 C 81.136719 46.292969 80.769531 46.800781 80.421875 47.328125 C 80.078125 47.859375 79.757812 48.402344 79.46875 48.960938 C 79.175781 49.523438 78.914062 50.09375 78.679688 50.679688 C 78.445312 51.265625 78.242188 51.863281 78.066406 52.46875 C 77.890625 53.074219 77.746094 53.6875 77.632812 54.308594 C 77.519531 54.929688 77.433594 55.554688 77.382812 56.183594 C 77.332031 56.8125 77.308594 57.441406 77.320312 58.074219 C 77.332031 58.703125 77.371094 59.332031 77.445312 59.960938 C 77.519531 60.585938 77.621094 61.210938 77.757812 61.824219 C 77.890625 62.441406 78.054688 63.050781 78.25 63.652344 C 78.445312 64.25 78.671875 64.839844 78.925781 65.417969 C 79.179688 65.996094 79.460938 66.558594 79.769531 67.109375 C 80.078125 67.660156 80.414062 68.191406 80.777344 68.710938 C 81.140625 69.226562 81.527344 69.722656 81.9375 70.203125 C 82.351562 70.679688 82.785156 71.136719 83.242188 71.570312 C 79.398438 72.90625 75.851562 74.800781 72.605469 77.253906 C 69.359375 79.707031 66.566406 82.601562 64.230469 85.933594 C 63.890625 85.320312 63.566406 84.699219 63.257812 84.070312 C 62.953125 83.4375 62.664062 82.800781 62.394531 82.152344 C 62.125 81.507812 61.875 80.851562 61.640625 80.191406 C 61.410156 79.53125 61.195312 78.863281 61 78.1875 C 60.804688 77.515625 60.632812 76.835938 60.476562 76.152344 C 60.320312 75.472656 60.183594 74.785156 60.066406 74.09375 C 59.953125 73.402344 59.855469 72.707031 59.777344 72.011719 C 59.699219 71.3125 59.644531 70.617188 59.605469 69.914062 C 59.570312 69.214844 59.554688 68.515625 59.554688 67.8125 C 59.558594 67.113281 59.582031 66.414062 59.625 65.714844 C 59.667969 65.011719 59.730469 64.316406 59.8125 63.621094 C 59.894531 62.921875 60 62.230469 60.121094 61.539062 C 60.242188 60.851562 60.386719 60.164062 60.546875 59.480469 C 60.707031 58.800781 60.890625 58.125 61.089844 57.453125 C 61.289062 56.78125 61.507812 56.113281 61.746094 55.453125 C 61.984375 54.796875 62.242188 54.144531 62.515625 53.5 C 62.792969 52.855469 63.085938 52.21875 63.398438 51.589844 C 63.707031 50.960938 64.039062 50.34375 64.382812 49.734375 C 64.730469 49.125 65.09375 48.527344 65.476562 47.9375 C 65.859375 47.351562 66.253906 46.773438 66.667969 46.207031 C 67.082031 45.640625 67.511719 45.089844 67.957031 44.546875 C 68.402344 44.007812 68.863281 43.480469 69.339844 42.964844 C 69.816406 42.449219 70.304688 41.949219 70.808594 41.460938 C 71.316406 40.976562 71.832031 40.503906 72.363281 40.046875 C 72.894531 39.589844 73.4375 39.144531 73.996094 38.71875 C 74.550781 38.292969 75.121094 37.882812 75.699219 37.488281 C 76.277344 37.097656 76.871094 36.71875 77.472656 36.359375 C 78.074219 36 78.683594 35.65625 79.304688 35.332031 C 79.925781 35.003906 80.554688 34.699219 81.195312 34.410156 C 81.832031 34.121094 82.476562 33.847656 83.132812 33.597656 C 83.785156 33.34375 84.445312 33.109375 85.113281 32.894531 C 85.78125 32.679688 86.453125 32.484375 87.132812 32.308594 C 87.808594 32.132812 88.492188 31.976562 89.179688 31.839844 C 89.867188 31.699219 90.558594 31.582031 91.253906 31.484375 C 91.945312 31.386719 92.644531 31.308594 93.339844 31.25 C 94.039062 31.191406 94.738281 31.15625 95.441406 31.136719 C 96.140625 31.117188 96.839844 31.121094 97.542969 31.140625 C 98.242188 31.164062 98.941406 31.203125 99.640625 31.265625 C 100.339844 31.328125 101.035156 31.410156 101.726562 31.511719 C 102.421875 31.613281 103.113281 31.734375 103.796875 31.875 C 104.484375 32.015625 105.167969 32.175781 105.84375 32.355469 C 106.523438 32.535156 107.195312 32.730469 107.859375 32.949219 C 108.527344 33.167969 109.1875 33.40625 109.839844 33.660156 C 110.492188 33.917969 111.136719 34.191406 111.773438 34.484375 C 112.410156 34.773438 113.039062 35.085938 113.65625 35.414062 C 114.277344 35.742188 114.886719 36.085938 115.484375 36.449219 C 116.085938 36.8125 116.675781 37.191406 117.253906 37.589844 C 117.832031 37.988281 118.394531 38.398438 118.949219 38.828125 C 119.503906 39.257812 120.046875 39.703125 120.574219 40.160156 C 121.105469 40.621094 121.621094 41.097656 122.121094 41.585938 C 122.625 42.074219 123.113281 42.578125 123.585938 43.09375 C 124.058594 43.613281 124.515625 44.140625 124.960938 44.683594 C 125.402344 45.226562 125.828125 45.785156 126.242188 46.351562 C 126.652344 46.917969 127.046875 47.496094 127.425781 48.085938 C 127.804688 48.679688 128.164062 49.277344 128.507812 49.890625 C 128.851562 50.5 129.179688 51.121094 129.488281 51.75 C 129.796875 52.378906 130.085938 53.015625 130.359375 53.660156 C 130.628906 54.308594 130.882812 54.960938 131.117188 55.621094 C 131.355469 56.28125 131.570312 56.949219 131.765625 57.621094 C 131.964844 58.292969 132.140625 58.972656 132.300781 59.65625 C 132.457031 60.335938 132.597656 61.023438 132.714844 61.714844 C 132.832031 62.40625 132.933594 63.097656 133.011719 63.796875 C 133.09375 64.492188 133.152344 65.191406 133.191406 65.890625 C 133.230469 66.589844 133.25 67.289062 133.25 67.992188 Z M 133.25 67.992188 " fill-opacity="1" fill-rule="nonzero"/></g><g clip-path="url(#fe43be0b84)"><path fill="#000000" d="M 152.316406 125.195312 L 40.453125 125.195312 C 39.828125 125.195312 39.207031 125.226562 38.585938 125.289062 C 37.964844 125.351562 37.347656 125.441406 36.734375 125.566406 C 36.121094 125.6875 35.519531 125.839844 34.921875 126.019531 C 34.324219 126.203125 33.738281 126.414062 33.160156 126.652344 C 32.582031 126.890625 32.019531 127.160156 31.46875 127.453125 C 30.917969 127.746094 30.382812 128.066406 29.867188 128.414062 C 29.347656 128.761719 28.847656 129.132812 28.363281 129.53125 C 27.878906 129.925781 27.417969 130.34375 26.976562 130.785156 C 26.535156 131.226562 26.117188 131.691406 25.722656 132.171875 C 25.324219 132.65625 24.953125 133.15625 24.605469 133.675781 C 24.257812 134.191406 23.9375 134.726562 23.644531 135.277344 C 23.347656 135.828125 23.082031 136.390625 22.84375 136.96875 C 22.605469 137.546875 22.394531 138.132812 22.210938 138.730469 C 22.03125 139.328125 21.878906 139.933594 21.753906 140.542969 C 21.632812 141.15625 21.542969 141.773438 21.480469 142.394531 C 21.417969 143.015625 21.386719 143.636719 21.386719 144.261719 L 21.386719 154.433594 C 21.386719 155.054688 21.417969 155.679688 21.480469 156.300781 C 21.542969 156.921875 21.632812 157.539062 21.753906 158.148438 C 21.878906 158.761719 22.03125 159.367188 22.210938 159.964844 C 22.394531 160.5625 22.605469 161.148438 22.84375 161.726562 C 23.082031 162.300781 23.347656 162.863281 23.644531 163.414062 C 23.9375 163.964844 24.257812 164.5 24.605469 165.019531 C 24.953125 165.539062 25.324219 166.039062 25.722656 166.523438 C 26.117188 167.003906 26.535156 167.464844 26.976562 167.90625 C 27.417969 168.347656 27.878906 168.769531 28.363281 169.164062 C 28.847656 169.558594 29.347656 169.933594 29.867188 170.277344 C 30.382812 170.625 30.917969 170.945312 31.46875 171.242188 C 32.019531 171.535156 32.582031 171.800781 33.160156 172.042969 C 33.738281 172.28125 34.324219 172.492188 34.921875 172.671875 C 35.519531 172.855469 36.121094 173.007812 36.734375 173.128906 C 37.347656 173.25 37.964844 173.34375 38.585938 173.40625 C 39.207031 173.46875 39.828125 173.5 40.453125 173.5 L 152.316406 173.5 C 152.941406 173.5 153.566406 173.46875 154.1875 173.40625 C 154.808594 173.34375 155.421875 173.25 156.035156 173.128906 C 156.648438 173.007812 157.253906 172.855469 157.851562 172.671875 C 158.449219 172.492188 159.035156 172.28125 159.609375 172.042969 C 160.1875 171.800781 160.75 171.535156 161.300781 171.242188 C 161.851562 170.945312 162.386719 170.625 162.90625 170.277344 C 163.425781 169.933594 163.925781 169.558594 164.40625 169.164062 C 164.890625 168.769531 165.351562 168.347656 165.792969 167.90625 C 166.234375 167.464844 166.652344 167.003906 167.050781 166.523438 C 167.445312 166.039062 167.816406 165.539062 168.164062 165.019531 C 168.511719 164.5 168.832031 163.964844 169.125 163.414062 C 169.421875 162.863281 169.6875 162.300781 169.925781 161.726562 C 170.167969 161.148438 170.378906 160.5625 170.558594 159.964844 C 170.742188 159.367188 170.894531 158.761719 171.015625 158.148438 C 171.136719 157.539062 171.230469 156.921875 171.292969 156.300781 C 171.351562 155.679688 171.382812 155.054688 171.386719 154.433594 L 171.386719 144.261719 C 171.382812 143.636719 171.351562 143.015625 171.292969 142.394531 C 171.230469 141.773438 171.136719 141.15625 171.015625 140.542969 C 170.894531 139.933594 170.742188 139.328125 170.558594 138.730469 C 170.378906 138.132812 170.167969 137.546875 169.925781 136.96875 C 169.6875 136.390625 169.421875 135.828125 169.125 135.277344 C 168.832031 134.726562 168.511719 134.191406 168.164062 133.675781 C 167.816406 133.15625 167.445312 132.65625 167.050781 132.171875 C 166.652344 131.691406 166.234375 131.226562 165.792969 130.785156 C 165.351562 130.34375 164.890625 129.925781 164.40625 129.53125 C 163.925781 129.132812 163.425781 128.761719 162.90625 128.414062 C 162.386719 128.066406 161.851562 127.746094 161.300781 127.453125 C 160.75 127.160156 160.1875 126.890625 159.609375 126.652344 C 159.035156 126.414062 158.449219 126.203125 157.851562 126.019531 C 157.253906 125.839844 156.648438 125.6875 156.035156 125.566406 C 155.421875 125.441406 154.808594 125.351562 154.1875 125.289062 C 153.566406 125.226562 152.941406 125.195312 152.316406 125.195312 Z M 29.011719 154.433594 L 29.011719 144.261719 C 29.011719 143.511719 29.085938 142.769531 29.234375 142.03125 C 29.382812 141.296875 29.601562 140.582031 29.886719 139.886719 C 30.175781 139.191406 30.527344 138.535156 30.945312 137.910156 C 31.363281 137.285156 31.835938 136.707031 32.367188 136.175781 C 32.898438 135.644531 33.476562 135.171875 34.101562 134.753906 C 34.726562 134.335938 35.382812 133.984375 36.078125 133.695312 C 36.769531 133.410156 37.484375 133.191406 38.222656 133.042969 C 38.957031 132.898438 39.703125 132.824219 40.453125 132.820312 L 123.082031 132.820312 L 123.082031 165.871094 L 40.453125 165.871094 C 39.703125 165.871094 38.957031 165.796875 38.222656 165.648438 C 37.484375 165.503906 36.769531 165.285156 36.078125 164.996094 C 35.382812 164.710938 34.726562 164.355469 34.101562 163.941406 C 33.476562 163.523438 32.898438 163.046875 32.367188 162.515625 C 31.835938 161.984375 31.363281 161.410156 30.945312 160.785156 C 30.527344 160.160156 30.175781 159.5 29.886719 158.808594 C 29.601562 158.113281 29.382812 157.398438 29.234375 156.664062 C 29.085938 155.925781 29.011719 155.183594 29.011719 154.433594 Z M 163.757812 154.433594 C 163.757812 155.183594 163.683594 155.925781 163.535156 156.664062 C 163.390625 157.398438 163.171875 158.113281 162.882812 158.808594 C 162.59375 159.5 162.242188 160.160156 161.824219 160.785156 C 161.40625 161.410156 160.933594 161.984375 160.402344 162.515625 C 159.871094 163.046875 159.292969 163.523438 158.671875 163.941406 C 158.046875 164.355469 157.386719 164.710938 156.695312 164.996094 C 156 165.285156 155.285156 165.503906 154.546875 165.648438 C 153.8125 165.796875 153.070312 165.871094 152.316406 165.871094 L 130.707031 165.871094 L 130.707031 132.820312 L 152.316406 132.820312 C 153.070312 132.824219 153.8125 132.898438 154.546875 133.042969 C 155.285156 133.191406 156 133.410156 156.695312 133.695312 C 157.386719 133.984375 158.046875 134.335938 158.671875 134.753906 C 159.292969 135.171875 159.871094 135.644531 160.402344 136.175781 C 160.933594 136.707031 161.40625 137.285156 161.824219 137.910156 C 162.242188 138.535156 162.59375 139.191406 162.882812 139.886719 C 163.171875 140.582031 163.390625 141.296875 163.535156 142.03125 C 163.683594 142.769531 163.757812 143.511719 163.757812 144.261719 Z M 163.757812 154.433594 " fill-opacity="1" fill-rule="nonzero"/></g><path fill="#000000" d="M 110.367188 149.347656 C 110.367188 149.851562 110.273438 150.339844 110.078125 150.804688 C 109.882812 151.273438 109.609375 151.6875 109.25 152.042969 C 108.894531 152.402344 108.480469 152.675781 108.015625 152.871094 C 107.546875 153.0625 107.0625 153.160156 106.554688 153.160156 C 106.050781 153.160156 105.5625 153.0625 105.09375 152.871094 C 104.628906 152.675781 104.214844 152.402344 103.859375 152.042969 C 103.5 151.6875 103.226562 151.273438 103.03125 150.804688 C 102.839844 150.339844 102.742188 149.851562 102.742188 149.347656 C 102.742188 148.839844 102.839844 148.355469 103.03125 147.886719 C 103.226562 147.421875 103.5 147.007812 103.859375 146.648438 C 104.214844 146.292969 104.628906 146.015625 105.09375 145.824219 C 105.5625 145.628906 106.050781 145.535156 106.554688 145.535156 C 107.0625 145.535156 107.546875 145.628906 108.015625 145.824219 C 108.480469 146.015625 108.894531 146.292969 109.25 146.648438 C 109.609375 147.007812 109.882812 147.421875 110.078125 147.886719 C 110.273438 148.355469 110.367188 148.839844 110.367188 149.347656 Z M 110.367188 149.347656 " fill-opacity="1" fill-rule="nonzero"/><path fill="#000000" d="M 90.03125 149.347656 C 90.03125 149.851562 89.933594 150.339844 89.738281 150.804688 C 89.546875 151.273438 89.269531 151.6875 88.914062 152.042969 C 88.554688 152.402344 88.144531 152.675781 87.675781 152.871094 C 87.207031 153.0625 86.722656 153.160156 86.214844 153.160156 C 85.710938 153.160156 85.222656 153.0625 84.757812 152.871094 C 84.289062 152.675781 83.878906 152.402344 83.519531 152.042969 C 83.160156 151.6875 82.886719 151.273438 82.691406 150.804688 C 82.5 150.339844 82.402344 149.851562 82.402344 149.347656 C 82.402344 148.839844 82.5 148.355469 82.691406 147.886719 C 82.886719 147.421875 83.160156 147.007812 83.519531 146.648438 C 83.878906 146.292969 84.289062 146.015625 84.757812 145.824219 C 85.222656 145.628906 85.710938 145.535156 86.214844 145.535156 C 86.722656 145.535156 87.207031 145.628906 87.675781 145.824219 C 88.144531 146.015625 88.554688 146.292969 88.914062 146.648438 C 89.269531 147.007812 89.546875 147.421875 89.738281 147.886719 C 89.933594 148.355469 90.03125 148.839844 90.03125 149.347656 Z M 90.03125 149.347656 " fill-opacity="1" fill-rule="nonzero"/><path fill="#000000" d="M 69.691406 149.347656 C 69.691406 149.851562 69.59375 150.339844 69.398438 150.804688 C 69.207031 151.273438 68.929688 151.6875 68.574219 152.042969 C 68.214844 152.402344 67.804688 152.675781 67.335938 152.871094 C 66.871094 153.0625 66.382812 153.160156 65.878906 153.160156 C 65.371094 153.160156 64.886719 153.0625 64.417969 152.871094 C 63.949219 152.675781 63.539062 152.402344 63.179688 152.042969 C 62.824219 151.6875 62.546875 151.273438 62.355469 150.804688 C 62.160156 150.339844 62.0625 149.851562 62.0625 149.347656 C 62.0625 148.839844 62.160156 148.355469 62.355469 147.886719 C 62.546875 147.421875 62.824219 147.007812 63.179688 146.648438 C 63.539062 146.292969 63.949219 146.015625 64.417969 145.824219 C 64.886719 145.628906 65.371094 145.535156 65.878906 145.535156 C 66.382812 145.535156 66.871094 145.628906 67.335938 145.824219 C 67.804688 146.015625 68.214844 146.292969 68.574219 146.648438 C 68.929688 147.007812 69.207031 147.421875 69.398438 147.886719 C 69.59375 148.355469 69.691406 148.839844 69.691406 149.347656 Z M 69.691406 149.347656 " fill-opacity="1" fill-rule="nonzero"/><path fill="#000000" d="M 49.351562 149.347656 C 49.351562 149.851562 49.253906 150.339844 49.0625 150.804688 C 48.867188 151.273438 48.59375 151.6875 48.234375 152.042969 C 47.878906 152.402344 47.464844 152.675781 46.996094 152.871094 C 46.53125 153.0625 46.042969 153.160156 45.539062 153.160156 C 45.03125 153.160156 44.546875 153.0625 44.078125 152.871094 C 43.613281 152.675781 43.199219 152.402344 42.839844 152.042969 C 42.484375 151.6875 42.207031 151.273438 42.015625 150.804688 C 41.820312 150.339844 41.722656 149.851562 41.722656 149.347656 C 41.722656 148.839844 41.820312 148.355469 42.015625 147.886719 C 42.207031 147.421875 42.484375 147.007812 42.839844 146.648438 C 43.199219 146.292969 43.613281 146.015625 44.078125 145.824219 C 44.546875 145.628906 45.03125 145.535156 45.539062 145.535156 C 46.042969 145.535156 46.53125 145.628906 46.996094 145.824219 C 47.464844 146.015625 47.878906 146.292969 48.234375 146.648438 C 48.59375 147.007812 48.867188 147.421875 49.0625 147.886719 C 49.253906 148.355469 49.351562 148.839844 49.351562 149.347656 Z M 49.351562 149.347656 " fill-opacity="1" fill-rule="nonzero"/></svg>