<svg xmlns="http://www.w3.org/2000/svg" xmlns:xlink="http://www.w3.org/1999/xlink" width="500" zoomAndPan="magnify" viewBox="0 0 375 374.999991" height="500" preserveAspectRatio="xMidYMid meet" version="1.0"><defs><clipPath id="500f3a20be"><path d="M 129.253906 92 L 261.253906 92 L 261.253906 241.777344 L 129.253906 241.777344 Z M 129.253906 92 " clip-rule="nonzero"/></clipPath></defs><g clip-path="url(#500f3a20be)"><path fill="#f4be1d" d="M 253.246094 134.851562 L 192.210938 100.609375 L 196.792969 100.5625 L 136.203125 136.105469 L 138.46875 132.160156 L 138.4375 202.570312 L 136.109375 198.585938 L 196.875 232.949219 L 192.375 232.933594 L 254.394531 198.453125 L 252.039062 202.523438 L 250.90625 130.929688 L 253.246094 134.851562 M 257.75 126.867188 C 259.171875 127.667969 260.0625 129.160156 260.089844 130.785156 L 261.222656 202.378906 C 261.25 204.066406 260.34375 205.628906 258.867188 206.453125 L 196.847656 240.933594 C 195.445312 241.710938 193.738281 241.707031 192.34375 240.917969 L 131.578125 206.550781 C 130.140625 205.738281 129.25 204.214844 129.25 202.566406 L 129.285156 132.15625 C 129.285156 130.535156 130.144531 129.03125 131.546875 128.210938 L 192.136719 92.667969 C 193.546875 91.84375 195.289062 91.824219 196.714844 92.625 Z M 257.75 126.867188 " fill-opacity="1" fill-rule="nonzero"/></g></svg>