<svg xmlns="http://www.w3.org/2000/svg" xmlns:xlink="http://www.w3.org/1999/xlink" width="500" zoomAndPan="magnify" viewBox="0 0 375 374.999991" height="500" preserveAspectRatio="xMidYMid meet" version="1.0"><defs><clipPath id="bd924f8ec1"><path d="M 26.296875 106.9375 L 163.492188 106.9375 L 163.492188 126.613281 L 26.296875 126.613281 Z M 26.296875 106.9375 " clip-rule="nonzero"/></clipPath><clipPath id="18b70bb744"><path d="M 66 14.863281 L 124 14.863281 L 124 81 L 66 81 Z M 66 14.863281 " clip-rule="nonzero"/></clipPath></defs><path fill="#100f0d" d="M 155.058594 109.847656 L 34.726562 109.847656 C 33.9375 109.847656 33.296875 109.210938 33.296875 108.421875 L 33.296875 38.726562 C 33.296875 35.09375 36.261719 32.136719 39.902344 32.136719 L 67.539062 32.136719 C 68.328125 32.136719 68.96875 32.773438 68.96875 33.5625 C 68.96875 34.351562 68.328125 34.988281 67.539062 34.988281 L 39.902344 34.988281 C 37.835938 34.988281 36.15625 36.664062 36.15625 38.726562 L 36.15625 106.996094 L 153.632812 106.996094 L 153.632812 38.726562 C 153.632812 36.664062 151.949219 34.988281 149.882812 34.988281 L 122.246094 34.988281 C 121.457031 34.988281 120.816406 34.351562 120.816406 33.5625 C 120.816406 32.773438 121.457031 32.136719 122.246094 32.136719 L 149.882812 32.136719 C 153.527344 32.136719 156.488281 35.09375 156.488281 38.726562 L 156.488281 108.421875 C 156.488281 109.210938 155.847656 109.847656 155.058594 109.847656 " fill-opacity="1" fill-rule="evenodd"/><g clip-path="url(#bd924f8ec1)"><path fill="#100f0d" d="M 29.15625 109.847656 L 29.15625 114.875 C 29.15625 119.78125 33.15625 123.773438 38.078125 123.773438 L 151.707031 123.773438 C 156.628906 123.773438 160.632812 119.78125 160.632812 114.875 L 160.632812 109.847656 Z M 151.707031 126.625 L 38.078125 126.625 C 31.582031 126.625 26.296875 121.355469 26.296875 114.875 L 26.296875 108.421875 C 26.296875 107.632812 26.9375 106.996094 27.726562 106.996094 L 162.058594 106.996094 C 162.851562 106.996094 163.488281 107.632812 163.488281 108.421875 L 163.488281 114.875 C 163.488281 121.355469 158.203125 126.625 151.707031 126.625 " fill-opacity="1" fill-rule="evenodd"/></g><path fill="#100f0d" d="M 148.414062 103.40625 L 41.371094 103.40625 C 40.582031 103.40625 39.941406 102.769531 39.941406 101.984375 L 39.941406 40.003906 C 39.941406 39.214844 40.582031 38.578125 41.371094 38.578125 L 67.539062 38.578125 C 68.328125 38.578125 68.96875 39.214844 68.96875 40.003906 C 68.96875 40.789062 68.328125 41.429688 67.539062 41.429688 L 42.800781 41.429688 L 42.800781 100.558594 L 146.984375 100.558594 L 146.984375 41.429688 L 122.246094 41.429688 C 121.457031 41.429688 120.816406 40.789062 120.816406 40.003906 C 120.816406 39.214844 121.457031 38.578125 122.246094 38.578125 L 148.414062 38.578125 C 149.203125 38.578125 149.84375 39.214844 149.84375 40.003906 L 149.84375 101.984375 C 149.84375 102.769531 149.203125 103.40625 148.414062 103.40625 " fill-opacity="1" fill-rule="evenodd"/><path fill="#100f0d" d="M 107.722656 118.238281 L 82.0625 118.238281 C 81.273438 118.238281 80.632812 117.597656 80.632812 116.8125 C 80.632812 116.023438 81.273438 115.386719 82.0625 115.386719 L 107.722656 115.386719 C 108.515625 115.386719 109.152344 116.023438 109.152344 116.8125 C 109.152344 117.597656 108.515625 118.238281 107.722656 118.238281 " fill-opacity="1" fill-rule="evenodd"/><g clip-path="url(#18b70bb744)"><path fill="#100f0d" d="M 68.96875 77.585938 L 120.816406 77.585938 L 120.816406 17.714844 L 68.96875 17.714844 Z M 122.246094 80.4375 L 67.539062 80.4375 C 66.75 80.4375 66.113281 79.800781 66.113281 79.011719 L 66.113281 16.289062 C 66.113281 15.503906 66.75 14.863281 67.539062 14.863281 L 122.246094 14.863281 C 123.035156 14.863281 123.675781 15.503906 123.675781 16.289062 L 123.675781 79.011719 C 123.675781 79.800781 123.035156 80.4375 122.246094 80.4375 " fill-opacity="1" fill-rule="evenodd"/></g><path fill="#100f0d" d="M 84.253906 24.863281 C 82.472656 24.863281 81.027344 26.308594 81.027344 28.082031 C 81.027344 29.859375 82.472656 31.300781 84.253906 31.300781 C 86.03125 31.300781 87.480469 29.859375 87.480469 28.082031 C 87.480469 26.308594 86.03125 24.863281 84.253906 24.863281 Z M 84.253906 34.152344 C 80.898438 34.152344 78.167969 31.429688 78.167969 28.082031 C 78.167969 24.738281 80.898438 22.011719 84.253906 22.011719 C 87.605469 22.011719 90.335938 24.738281 90.335938 28.082031 C 90.335938 31.429688 87.609375 34.152344 84.253906 34.152344 " fill-opacity="1" fill-rule="evenodd"/><path fill="#100f0d" d="M 76.449219 44.664062 L 91.453125 44.664062 L 91.453125 41.546875 C 91.453125 39.828125 90.050781 38.429688 88.328125 38.429688 L 79.574219 38.429688 C 77.851562 38.429688 76.449219 39.828125 76.449219 41.546875 Z M 92.882812 47.515625 L 75.019531 47.515625 C 74.230469 47.515625 73.589844 46.878906 73.589844 46.089844 L 73.589844 41.546875 C 73.589844 38.253906 76.277344 35.578125 79.574219 35.578125 L 88.328125 35.578125 C 91.628906 35.578125 94.3125 38.253906 94.3125 41.546875 L 94.3125 46.089844 C 94.3125 46.878906 93.671875 47.515625 92.882812 47.515625 " fill-opacity="1" fill-rule="evenodd"/><path fill="#100f0d" d="M 113.492188 39.765625 L 99.558594 39.765625 C 98.769531 39.765625 98.128906 39.128906 98.128906 38.339844 C 98.128906 37.550781 98.769531 36.914062 99.558594 36.914062 L 113.492188 36.914062 C 114.28125 36.914062 114.921875 37.550781 114.921875 38.339844 C 114.921875 39.128906 114.28125 39.765625 113.492188 39.765625 " fill-opacity="1" fill-rule="evenodd"/><path fill="#100f0d" d="M 113.492188 47.515625 L 99.558594 47.515625 C 98.769531 47.515625 98.128906 46.878906 98.128906 46.089844 C 98.128906 45.304688 98.769531 44.664062 99.558594 44.664062 L 113.492188 44.664062 C 114.28125 44.664062 114.921875 45.304688 114.921875 46.089844 C 114.921875 46.878906 114.28125 47.515625 113.492188 47.515625 " fill-opacity="1" fill-rule="evenodd"/><path fill="#100f0d" d="M 114.765625 55.734375 L 78.28125 55.734375 C 77.492188 55.734375 76.851562 55.097656 76.851562 54.308594 C 76.851562 53.523438 77.492188 52.882812 78.28125 52.882812 L 114.765625 52.882812 C 115.554688 52.882812 116.195312 53.523438 116.195312 54.308594 C 116.195312 55.097656 115.554688 55.734375 114.765625 55.734375 " fill-opacity="1" fill-rule="evenodd"/><path fill="#100f0d" d="M 114.765625 63.53125 L 78.28125 63.53125 C 77.492188 63.53125 76.851562 62.894531 76.851562 62.105469 C 76.851562 61.320312 77.492188 60.679688 78.28125 60.679688 L 114.765625 60.679688 C 115.554688 60.679688 116.195312 61.320312 116.195312 62.105469 C 116.195312 62.894531 115.554688 63.53125 114.765625 63.53125 " fill-opacity="1" fill-rule="evenodd"/><path fill="#100f0d" d="M 112.398438 73.289062 L 99.558594 73.289062 C 98.769531 73.289062 98.128906 72.648438 98.128906 71.863281 C 98.128906 71.074219 98.769531 70.4375 99.558594 70.4375 L 112.398438 70.4375 C 113.1875 70.4375 113.828125 71.074219 113.828125 71.863281 C 113.828125 72.648438 113.1875 73.289062 112.398438 73.289062 " fill-opacity="1" fill-rule="evenodd"/><path fill="#100f0d" d="M 116.476562 88.597656 L 73.308594 88.597656 C 72.519531 88.597656 71.878906 87.960938 71.878906 87.175781 C 71.878906 86.386719 72.519531 85.75 73.308594 85.75 L 116.476562 85.75 C 117.269531 85.75 117.90625 86.386719 117.90625 87.175781 C 117.90625 87.960938 117.269531 88.597656 116.476562 88.597656 " fill-opacity="1" fill-rule="evenodd"/><path fill="#100f0d" d="M 123.921875 95.554688 L 65.863281 95.554688 C 65.074219 95.554688 64.433594 94.917969 64.433594 94.128906 C 64.433594 93.34375 65.074219 92.707031 65.863281 92.707031 L 123.921875 92.707031 C 124.710938 92.707031 125.351562 93.34375 125.351562 94.128906 C 125.351562 94.917969 124.710938 95.554688 123.921875 95.554688 " fill-opacity="1" fill-rule="evenodd"/></svg>